<svg xmlns="http://www.w3.org/2000/svg" width="169" height="170" viewBox="0 0 169 170"><defs><clipPath id="vc9ea"><path fill="#fff" d="M80.592 59.996c5.88 0 10.647 4.701 10.647 10.5 0 5.8-4.767 10.502-10.647 10.502s-10.646-4.701-10.646-10.501 4.766-10.501 10.646-10.501z"/></clipPath><clipPath id="vc9eb"><path fill="#fff" d="M81.47 109.695l-1.045-1.044L94.37 94.824l1.045 1.045z"/></clipPath><clipPath id="vc9ec"><path fill="#fff" d="M81.631 108.115l-1.045 1.744-17.433-17.283 1.045-1.744z"/></clipPath><clipPath id="vc9ed"><path fill="#fff" d="M108.996 82.947s-.984 14.419-5.24 18.638c-4.254 4.218-10.74 4.629-14.484.916-3.744-3.712-3.33-10.141.925-14.36 4.255-4.218 18.799-5.194 18.799-5.194z"/></clipPath><clipPath id="vc9ee"><path fill="#fff" d="M59.998 89.398s.72 10.51 3.837 13.585c3.117 3.075 7.867 3.374 10.61.668 2.743-2.706 2.44-7.392-.677-10.467s-13.77-3.786-13.77-3.786z"/></clipPath></defs><g><g><path fill="#fff" d="M79.914 86.325h2.066V123h-2.066z"/></g><g><path fill="none" stroke="#fff" stroke-miterlimit="20" stroke-width="6" d="M80.592 59.996c5.88 0 10.647 4.701 10.647 10.5 0 5.8-4.767 10.502-10.647 10.502s-10.646-4.701-10.646-10.501 4.766-10.501 10.646-10.501z" clip-path="url(&quot;#vc9ea&quot;)"/></g><g><path fill="none" stroke="#fff" stroke-miterlimit="20" stroke-width="6" d="M81.47 109.695v0l-1.045-1.044v0L94.37 94.824v0l1.045 1.045v0z" clip-path="url(&quot;#vc9eb&quot;)"/></g><g><path fill="none" stroke="#fff" stroke-miterlimit="20" stroke-width="6" d="M81.631 108.115v0l-1.045 1.744v0L63.153 92.576v0l1.045-1.744v0z" clip-path="url(&quot;#vc9ec&quot;)"/></g><g><path fill="none" stroke="#fff" stroke-miterlimit="20" stroke-width="6" d="M108.996 82.947v0s-.984 14.419-5.24 18.638c-4.254 4.218-10.74 4.629-14.484.916-3.744-3.712-3.33-10.141.925-14.36 4.255-4.218 18.799-5.194 18.799-5.194z" clip-path="url(&quot;#vc9ed&quot;)"/></g><g><path fill="none" stroke="#fff" stroke-miterlimit="20" stroke-width="6" d="M59.998 89.398v0s.72 10.51 3.837 13.585c3.117 3.075 7.867 3.374 10.61.668 2.743-2.706 2.44-7.392-.677-10.467s-13.77-3.786-13.77-3.786z" clip-path="url(&quot;#vc9ee&quot;)"/></g></g></svg>